<?xml version="1.0" encoding="utf-8"?>
<svg viewBox="0 0 500 500" xmlns="http://www.w3.org/2000/svg">
  <g transform="matrix(1, 0, 0, 1, 24.162153, 0.96056)">
    <g>
      <path d="M 445.698 175.004 L 414.031 142.551 C 405.289 133.592 391.106 133.592 382.364 142.551 L 208.175 321.056 C 205.71 323.574 203.86 326.646 202.764 330.03 L 186.93 378.708 C 186.138 381.151 185.887 383.662 185.909 386.158 L 163.776 386.158 L 52.536 386.158 L 52.536 408.916 L 169.721 408.916 L 207.983 408.916 L 207.983 408.779 C 210.418 408.802 212.869 408.551 215.253 407.732 L 262.752 391.505 C 266.054 390.375 269.052 388.478 271.509 385.96 L 445.691 207.455 C 454.441 198.505 454.441 183.971 445.698 175.004 Z M 208.175 385.969 L 224.009 337.29 L 255.676 369.743 L 208.175 385.969 Z M 271.516 353.517 L 239.842 321.056 L 398.199 158.778 L 429.866 191.231 L 271.516 353.517 Z" style="fill: rgb(255, 255, 255);"/>
    </g>
  </g>
  <g transform="matrix(1, 0, 0, 1, 24.162153, 0.96056)">
    <g>
      <path d="M 127.595 67.557 C 90.858 67.557 60.975 98.181 60.975 135.83 C 60.975 173.479 90.858 204.104 127.595 204.104 C 164.332 204.104 194.215 173.479 194.215 135.83 C 194.215 98.181 164.332 67.557 127.595 67.557 Z M 127.595 181.346 C 103.064 181.346 83.182 160.97 83.182 135.83 C 83.182 110.691 103.064 90.315 127.595 90.315 C 152.126 90.315 172.008 110.691 172.008 135.83 C 172.008 160.97 152.126 181.346 127.595 181.346 Z" style="fill: rgb(255, 255, 255);"/>
    </g>
  </g>
  <g transform="matrix(1, 0, 0, 1, 24.162153, 0.96056)">
    <g>
      <path d="M 193.86 222.795 C 191.935 211.97 182.741 204.104 172.008 204.104 L 127.595 204.104 L 83.182 204.104 C 72.449 204.104 63.255 211.97 61.338 222.795 L 52.536 272.377 L 75.106 272.377 L 83.182 226.862 L 116.492 226.862 L 116.492 272.377 L 138.698 272.377 L 138.698 226.862 L 172.008 226.862 L 180.084 272.377 L 202.654 272.377 L 193.86 222.795 Z" style="fill: rgb(255, 255, 255);"/>
    </g>
  </g>
  <g transform="matrix(1, 0, 0, 1, 24.162153, 0.96056)">
    <g>
      <rect x="207.983" y="90.315" width="133.24" height="22.758" style="fill: rgb(255, 255, 255);"/>
    </g>
  </g>
  <g transform="matrix(1, 0, 0, 1, 24.162153, 0.96056)">
    <g>
      <path d="M 52.536 317.893 L 52.536 340.65 L 175.902 340.65 L 181.699 322.824 C 182.269 321.087 183.201 319.532 183.964 317.893 L 52.536 317.893 Z" style="fill: rgb(255, 255, 255);"/>
    </g>
  </g>
  <g transform="matrix(1, 0, 0, 1, 24.162153, 0.96056)">
    <g>
      <polygon points="207.983 158.588 207.983 181.346 313.102 181.346 335.308 158.588" style="fill: rgb(255, 255, 255);"/>
    </g>
  </g>
  <g transform="matrix(0.86745, 0, 0, 0.888976, 32.28307, 23.002323)" style="">
    <g>
      <path d="M413.331,117.444c6.17-6.17,13.722-10.351,21.871-12.74V0H0.002v512h435.2V314.027l-25.6,25.6V486.4h-384V25.6h384v95.573 L413.331,117.444z" style="fill: rgb(255, 255, 255);"/>
    </g>
  </g>
  <g transform="matrix(1, 0, 0, 1, 24.162153, 0.96056)"/>
  <g transform="matrix(1, 0, 0, 1, 24.162153, 0.96056)"/>
  <g transform="matrix(1, 0, 0, 1, 24.162153, 0.96056)"/>
  <g transform="matrix(1, 0, 0, 1, 24.162153, 0.96056)"/>
  <g transform="matrix(1, 0, 0, 1, 24.162153, 0.96056)"/>
  <g transform="matrix(1, 0, 0, 1, 24.162153, 0.96056)"/>
  <g transform="matrix(1, 0, 0, 1, 24.162153, 0.96056)"/>
  <g transform="matrix(1, 0, 0, 1, 24.162153, 0.96056)"/>
  <g transform="matrix(1, 0, 0, 1, 24.162153, 0.96056)"/>
  <g transform="matrix(1, 0, 0, 1, 24.162153, 0.96056)"/>
  <g transform="matrix(1, 0, 0, 1, 24.162153, 0.96056)"/>
  <g transform="matrix(1, 0, 0, 1, 24.162153, 0.96056)"/>
  <g transform="matrix(1, 0, 0, 1, 24.162153, 0.96056)"/>
  <g transform="matrix(1, 0, 0, 1, 24.162153, 0.96056)"/>
  <g transform="matrix(1, 0, 0, 1, 24.162153, 0.96056)"/>
</svg>